{"title":"Dommeren.[x264][AC3(5.1)]Multi_Sub.mkv","uid":5226327,"size":1481690477,"categoryP":"video","categoryS":"movies","magnet":"?xt=urn:btih:e865a3571fac80e48509e6e96044f7c8c328164d&amp;dn=Dommeren.%5Bx264%5D%5BAC3%285.1%29%5DMulti_Sub.mkv&amp;tr=udp%3A%2F%2Ftracker.openbittorrent.com%3A80&amp;tr=udp%3A%2F%2Fopen.demonii.com%3A1337&amp;tr=udp%3A%2F%2Ftracker.coppersurfer.tk%3A6969&amp;tr=udp%3A%2F%2Fexodus.desync.com%3A6969","seeders":0,"leechers":1,"uploader":"Zen_Bud","files":-1,"time":1261096739,"description":"General\nComplete name                    : Dommeren(2005).mkv\nFormat                           : Matroska\nFile size                        : 1.38 GiB\nDuration                         : 1h 26mn\nOverall bit rate                 : 2 289 Kbps\n\n\nVideo\nID                               : 1\nFormat                           : AVC\n\nDuration                         : 1h 26mn\nBit rate                         : 1 790 Kbps\nNominal bit rate                 : 1 817 Kbps\nWidth                            : 718 pixels\nHeight                           : 436 pixels\nDisplay aspect ratio             : 2.35\nFrame rate                       : 25.000 fps\nResolution                       : 24 bits\nColorimetry                      : 4:2:0\nScan type                        : Progressive\nBits/(Pixel*Frame)               : 0.229\nStream size                      : 1.08 GiB (78%)\nWriting library                  : x264 core 79\n\n\nAudio\nID                               : 2\nFormat                           : AC-3\nFormat/Info                      : Audio Coding 3\nCodec ID                         : A_AC3\nDuration                         : 1h 26mn\nBit rate mode                    : Constant\nBit rate                         : 448 Kbps\nChannel(s)                       : 6 channels\nChannel positions                : Front: L C R, Surround: L R, LFE\nSampling rate                    : 48.0 KHz\nStream size                      : 277 MiB (20%)\nLanguage                         : Danish\n\nText #1\nLanguage                         : Danish\n\nText #2\nLanguage                         : Danish\n\nText #3\nLanguage                         : Finnish\n\nText #4\nLanguage                         : Norwegian\n\nText #5\nLanguage                         : Swedish\n\nText #6\nLanguage                         : English","torrent":{"xt":"urn:btih:e865a3571fac80e48509e6e96044f7c8c328164d","amp;dn":"Dommeren.%5Bx264%5D%5BAC3%285.1%29%5DMulti_Sub.mkv","amp;tr":["udp%3A%2F%2Ftracker.openbittorrent.com%3A80","udp%3A%2F%2Fopen.demonii.com%3A1337","udp%3A%2F%2Ftracker.coppersurfer.tk%3A6969","udp%3A%2F%2Fexodus.desync.com%3A6969"],"infoHash":"e865a3571fac80e48509e6e96044f7c8c328164d","infoHashBuffer":{"type":"Buffer","data":[232,101,163,87,31,172,128,228,133,9,230,233,96,68,247,200,195,40,22,77]},"announce":[],"urlList":[]}}